<svg xmlns="http://www.w3.org/2000/svg" viewBox="0 0 80 80" width="512" height="512">
  <title>KhetiSathi</title>
  <defs>
    <clipPath id="ks-shield"><path d="M40 7 L62 14.5 V36 C62 52 52.5 63 40 70.5 C27.5 63 18 52 18 36 V14.5 Z"/></clipPath>
  </defs>
  <!-- guard sound waves -->
  <g fill="none" stroke="#E39A0B" stroke-linecap="round" stroke-width="3.4">
    <path d="M11.5 29 Q7 39 11.5 49"/>
    <path d="M68.5 29 Q73 39 68.5 49"/>
    <path d="M4.5 23 Q-1 39 4.5 55" opacity=".5"/>
    <path d="M75.5 23 Q81 39 75.5 55" opacity=".5"/>
  </g>
  <!-- shield -->
  <path d="M40 7 L62 14.5 V36 C62 52 52.5 63 40 70.5 C27.5 63 18 52 18 36 V14.5 Z" fill="#1F6B3A"/>
  <!-- terraced field -->
  <g clip-path="url(#ks-shield)">
    <path d="M14 50 Q40 41.5 66 50 V76 H14 Z" fill="#6B4226"/>
    <path d="M14 58.5 Q40 50.5 66 58.5 V76 H14 Z" fill="#553319"/>
    <path d="M14 50 Q40 41.5 66 50" fill="none" stroke="#E39A0B" stroke-width="2.4"/>
    <path d="M14 58.5 Q40 50.5 66 58.5" fill="none" stroke="#8C5A33" stroke-width="1.6"/>
  </g>
  <!-- sprout -->
  <path d="M40 46 V29" stroke="#EAF4E4" stroke-width="3.4" stroke-linecap="round" fill="none"/>
  <path d="M40 37.5 C31 37.5 25 31.5 25 22.5 C34 22.5 40 28.5 40 37.5 Z" fill="#8FD17F"/>
  <path d="M40 31 C40 21.5 46 15.5 55.5 15.5 C55.5 25 49.5 31 40 31 Z" fill="#F2B233"/>
</svg>
